<?xml version="1.0" encoding="UTF-8"?>
<svg width="300px" height="26px" viewBox="0 0 300 26" version="1.1" xmlns="http://www.w3.org/2000/svg" xmlns:xlink="http://www.w3.org/1999/xlink">
    <!-- Generator: Sketch 63.1 (92452) - https://sketch.com -->
    <title>Group</title>
    <desc>Created with Sketch.</desc>
    <g id="Page-1" stroke="none" stroke-width="1" fill="none" fill-rule="evenodd">
        <g id="as_comp_CONT" transform="translate(-161.000000, -395.000000)" fill="#1A1919">
            <g id="Group" transform="translate(161.085000, 395.432000)">
                <path d="M60.943,14.49 L60.943,5.669 L64.188,5.669 L64.188,14.246 C64.188,16.477 65.221,17.512 67.046,17.512 C68.912,17.512 69.844,16.438 69.844,14.145 L69.844,5.669 L73.11,5.669 L73.11,14.348 C73.11,18.261 70.778,20.046 66.986,20.046 C63.356,20.046 60.943,18.403 60.943,14.49" id="Fill-1"></path>
                <path d="M82.725,19.843 L82.725,13.477 C82.725,11.956 82.297,11.184 81.04,11.184 C79.744,11.184 79.014,12.3 79.014,14.084 L79.014,19.843 L75.831,19.843 L75.831,11.49 C75.831,10.374 75.789,9.583 75.769,8.975 L78.811,8.975 C78.85,9.361 78.953,10.598 78.972,11.207 C79.519,9.483 80.879,8.772 82.439,8.772 C85.178,8.772 85.948,10.618 85.948,12.644 L85.948,19.843 L82.725,19.843 Z" id="Fill-3"></path>
                <path d="M88.669,19.843 L91.811,19.843 L91.811,8.975 L88.669,8.975 L88.669,19.843 Z M88.669,7.618 L91.811,7.618 L91.811,4.656 L88.669,4.656 L88.669,7.618 Z" id="Fill-4"></path>
                <polygon id="Fill-5" points="101.046 19.843 97.336 19.843 93.442 8.975 96.625 8.975 98.491 14.773 99.243 17.39 99.973 14.773 101.696 8.975 104.819 8.975"></polygon>
                <path d="M108.727,13.171 L112.377,13.171 L112.377,13.132 C112.377,11.246 111.688,10.679 110.592,10.679 C109.56,10.679 108.789,11.246 108.727,13.171 M105.363,14.348 C105.363,10.11 107.755,8.772 110.654,8.772 C114.406,8.772 115.641,11.023 115.641,14.045 C115.641,14.531 115.602,14.998 115.602,14.998 L108.727,14.998 L108.727,15.281 C108.727,16.66 109.215,18.017 110.737,18.017 C111.73,18.017 112.257,17.573 112.438,16.518 L115.438,16.702 C115.033,18.464 113.979,20.046 110.634,20.046 C107.248,20.046 105.363,18.181 105.363,14.348" id="Fill-6"></path>
                <path d="M117.777,19.843 L117.777,11.55 C117.777,10.862 117.738,9.219 117.697,8.975 L120.738,8.975 C120.758,9.158 120.881,10.354 120.922,11.023 C121.225,9.747 122.117,8.772 123.781,8.772 C123.922,8.772 124.225,8.772 124.469,8.814 L124.469,11.509 C124.021,11.448 123.738,11.448 123.394,11.448 C121.732,11.448 120.982,12.585 120.982,14.207 L120.982,19.843 L117.777,19.843 Z" id="Fill-7"></path>
                <path d="M129.957,20.046 C126.693,20.046 125.477,18.525 125.232,16.863 L128.111,16.538 C128.193,17.268 128.66,18.017 129.918,18.017 C130.992,18.017 131.478,17.612 131.478,16.943 C131.478,16.213 130.951,15.93 129.187,15.525 C126.449,14.895 125.557,13.821 125.557,12.037 C125.557,10.09 127.057,8.772 129.896,8.772 C132.49,8.772 134.135,10.071 134.379,11.833 L131.436,12.037 C131.396,11.184 130.709,10.74 129.795,10.74 C128.822,10.74 128.436,11.145 128.436,11.631 C128.436,12.261 128.68,12.605 130.809,13.09 C133.041,13.598 134.662,14.306 134.662,16.497 C134.662,18.728 133.08,20.046 129.957,20.046" id="Fill-8"></path>
                <path d="M136.553,19.843 L139.698,19.843 L139.698,8.975 L136.553,8.975 L136.553,19.843 Z M136.553,7.618 L139.698,7.618 L139.698,4.656 L136.553,4.656 L136.553,7.618 Z" id="Fill-9"></path>
                <path d="M149.394,14.287 C149.394,11.612 148.26,10.943 147.227,10.943 C145.889,10.943 145.178,11.956 145.178,14.329 C145.178,16.679 145.828,17.856 147.205,17.856 C148.24,17.856 149.394,17.107 149.394,14.287 L149.394,14.287 Z M149.518,19.843 C149.498,19.702 149.394,18.445 149.394,18.04 L149.355,18.04 C148.707,19.438 147.529,20.046 145.867,20.046 C142.947,20.046 141.873,17.47 141.873,14.368 C141.873,10.943 143.232,8.772 146.051,8.772 C147.57,8.772 148.809,9.361 149.355,10.657 L149.375,10.657 C149.375,10.374 149.355,9.583 149.355,8.833 L149.355,3.946 L152.518,3.946 L152.518,17.451 C152.518,18.201 152.559,19.519 152.6,19.843 L149.518,19.843 Z" id="Fill-10"></path>
                <path d="M158.953,18.017 C160.027,18.017 160.799,17.207 160.799,15.727 L160.799,14.916 L159.418,14.916 C158.383,14.916 157.432,15.3 157.432,16.518 C157.432,17.309 157.918,18.017 158.953,18.017 L158.953,18.017 Z M165.4,17.815 L165.4,19.966 C164.711,20.026 164.387,20.046 163.695,20.046 C162.156,20.046 161.082,19.358 161.062,18.04 C160.555,19.417 159.338,20.046 157.855,20.046 C155.443,20.046 154.35,18.445 154.35,16.801 C154.35,14.267 156.154,13.293 159.725,13.293 L160.799,13.293 L160.799,12.38 C160.799,11.145 160.228,10.679 159.258,10.679 C158.242,10.679 157.695,11.246 157.695,12.261 L154.775,12.078 C154.959,10.129 156.418,8.772 159.437,8.772 C162.5,8.772 163.879,10.152 163.879,12.747 L163.879,17.024 C163.879,17.532 164.062,17.815 164.65,17.815 L165.4,17.815 Z" id="Fill-11"></path>
                <path d="M174.01,14.287 C174.01,11.612 172.875,10.943 171.84,10.943 C170.502,10.943 169.795,11.956 169.795,14.329 C169.795,16.679 170.441,17.856 171.82,17.856 C172.855,17.856 174.01,17.107 174.01,14.287 L174.01,14.287 Z M174.133,19.843 C174.113,19.702 174.01,18.445 174.01,18.04 L173.971,18.04 C173.322,19.438 172.144,20.046 170.482,20.046 C167.562,20.046 166.488,17.47 166.488,14.368 C166.488,10.943 167.846,8.772 170.666,8.772 C172.187,8.772 173.422,9.361 173.971,10.657 L173.99,10.657 C173.99,10.374 173.971,9.583 173.971,8.833 L173.971,3.946 L177.133,3.946 L177.133,17.451 C177.133,18.201 177.174,19.519 177.213,19.843 L174.133,19.843 Z" id="Fill-12"></path>
                <path d="M182.758,13.171 L186.408,13.171 L186.408,13.132 C186.408,11.246 185.717,10.679 184.623,10.679 C183.588,10.679 182.816,11.246 182.758,13.171 M179.391,14.348 C179.391,10.11 181.783,8.772 184.684,8.772 C188.434,8.772 189.672,11.023 189.672,14.045 C189.672,14.531 189.631,14.998 189.631,14.998 L182.758,14.998 L182.758,15.281 C182.758,16.66 183.244,18.017 184.764,18.017 C185.758,18.017 186.285,17.573 186.469,16.518 L189.469,16.702 C189.064,18.464 188.01,20.046 184.662,20.046 C181.275,20.046 179.391,18.181 179.391,14.348" id="Fill-13"></path>
                <path d="M204.266,14.287 C204.266,11.612 203.131,10.943 202.098,10.943 C200.758,10.943 200.049,11.956 200.049,14.329 C200.049,16.679 200.697,17.856 202.076,17.856 C203.111,17.856 204.266,17.107 204.266,14.287 L204.266,14.287 Z M204.389,19.843 C204.369,19.702 204.266,18.445 204.266,18.04 L204.227,18.04 C203.578,19.438 202.4,20.046 200.738,20.046 C197.818,20.046 196.744,17.47 196.744,14.368 C196.744,10.943 198.102,8.772 200.922,8.772 C202.441,8.772 203.678,9.361 204.227,10.657 L204.246,10.657 C204.246,10.374 204.227,9.583 204.227,8.833 L204.227,3.946 L207.389,3.946 L207.389,17.451 C207.389,18.201 207.43,19.519 207.471,19.843 L204.389,19.843 Z" id="Fill-14"></path>
                <path d="M213.014,13.171 L216.662,13.171 L216.662,13.132 C216.662,11.246 215.973,10.679 214.879,10.679 C213.844,10.679 213.074,11.246 213.014,13.171 M209.646,14.348 C209.646,10.11 212.039,8.772 214.939,8.772 C218.689,8.772 219.928,11.023 219.928,14.045 C219.928,14.531 219.885,14.998 219.885,14.998 L213.014,14.998 L213.014,15.281 C213.014,16.66 213.498,18.017 215.019,18.017 C216.014,18.017 216.541,17.573 216.725,16.518 L219.725,16.702 C219.318,18.464 218.264,20.046 214.918,20.046 C211.531,20.046 209.646,18.181 209.646,14.348" id="Fill-15"></path>
                <path d="M233.076,13.699 L231.271,13.699 L231.271,17.49 L233.176,17.49 C234.678,17.49 235.691,17.004 235.691,15.544 C235.691,14.104 234.516,13.699 233.076,13.699 M232.689,7.981 L231.271,7.981 L231.271,11.287 L232.713,11.287 C234.252,11.287 234.922,10.779 234.922,9.625 C234.922,8.428 234.211,7.981 232.689,7.981 M233.48,19.843 L228.088,19.843 L228.088,5.669 L232.996,5.669 C236.279,5.669 238.166,6.866 238.166,9.258 C238.166,10.862 237.314,11.915 235.609,12.322 C237.779,12.605 238.977,13.901 238.977,15.789 C238.977,18.647 236.664,19.843 233.48,19.843" id="Fill-16"></path>
                <path d="M241.152,19.843 L241.152,11.55 C241.152,10.862 241.109,9.219 241.07,8.975 L244.113,8.975 C244.133,9.158 244.254,10.354 244.293,11.023 C244.6,9.747 245.49,8.772 247.152,8.772 C247.297,8.772 247.6,8.772 247.844,8.814 L247.844,11.509 C247.396,11.448 247.113,11.448 246.769,11.448 C245.103,11.448 244.355,12.585 244.355,14.207 L244.355,19.843 L241.152,19.843 Z" id="Fill-17"></path>
                <path d="M253.107,18.017 C254.184,18.017 254.953,17.207 254.953,15.727 L254.953,14.916 L253.572,14.916 C252.541,14.916 251.588,15.3 251.588,16.518 C251.588,17.309 252.074,18.017 253.107,18.017 L253.107,18.017 Z M259.557,17.815 L259.557,19.966 C258.865,20.026 258.541,20.046 257.853,20.046 C256.312,20.046 255.236,19.358 255.217,18.04 C254.709,19.417 253.492,20.046 252.014,20.046 C249.602,20.046 248.506,18.445 248.506,16.801 C248.506,14.267 250.309,13.293 253.879,13.293 L254.953,13.293 L254.953,12.38 C254.953,11.145 254.387,10.679 253.412,10.679 C252.398,10.679 251.852,11.246 251.852,12.261 L248.932,12.078 C249.113,10.129 250.572,8.772 253.596,8.772 C256.656,8.772 258.035,10.152 258.035,12.747 L258.035,17.024 C258.035,17.532 258.217,17.815 258.805,17.815 L259.557,17.815 Z" id="Fill-18"></path>
                <path d="M265.045,20.046 C261.779,20.046 260.562,18.525 260.318,16.863 L263.199,16.538 C263.279,17.268 263.746,18.017 265.004,18.017 C266.078,18.017 266.562,17.612 266.562,16.943 C266.562,16.213 266.039,15.93 264.273,15.525 C261.537,14.895 260.643,13.821 260.643,12.037 C260.643,10.09 262.144,8.772 264.984,8.772 C267.578,8.772 269.219,10.071 269.463,11.833 L266.523,12.037 C266.482,11.184 265.795,10.74 264.881,10.74 C263.908,10.74 263.523,11.145 263.523,11.631 C263.523,12.261 263.766,12.605 265.894,13.09 C268.125,13.598 269.746,14.306 269.746,16.497 C269.746,18.728 268.168,20.046 265.045,20.046" id="Fill-19"></path>
                <path d="M271.822,7.981 L271.822,7.657 L273.893,4.778 L276.752,4.778 L276.752,5.245 L273.789,7.981 L271.822,7.981 Z M271.641,19.843 L274.803,19.843 L274.803,8.975 L271.641,8.975 L271.641,19.843 Z" id="Fill-20"></path>
                <polygon id="Fill-21" points="277.295 19.843 280.457 19.843 280.457 3.946 277.295 3.946"></polygon>
                <path d="M283.176,19.843 L286.321,19.843 L286.321,8.975 L283.176,8.975 L283.176,19.843 Z M283.176,7.618 L286.321,7.618 L286.321,4.656 L283.176,4.656 L283.176,7.618 Z" id="Fill-22"></path>
                <path d="M292.674,18.017 C293.748,18.017 294.519,17.207 294.519,15.727 L294.519,14.916 L293.141,14.916 C292.107,14.916 291.152,15.3 291.152,16.518 C291.152,17.309 291.641,18.017 292.674,18.017 L292.674,18.017 Z M299.121,17.815 L299.121,19.966 C298.432,20.026 298.107,20.046 297.42,20.046 C295.877,20.046 294.803,19.358 294.783,18.04 C294.275,19.417 293.059,20.046 291.58,20.046 C289.166,20.046 288.072,18.445 288.072,16.801 C288.072,14.267 289.875,13.293 293.445,13.293 L294.519,13.293 L294.519,12.38 C294.519,11.145 293.951,10.679 292.978,10.679 C291.963,10.679 291.416,11.246 291.416,12.261 L288.496,12.078 C288.68,10.129 290.139,8.772 293.16,8.772 C296.223,8.772 297.6,10.152 297.6,12.747 L297.6,17.024 C297.6,17.532 297.783,17.815 298.371,17.815 L299.121,17.815 Z" id="Fill-23"></path>
                <path d="M49.606,2.869 L42.326,8.127 C39.831,9.924 37.105,11.482 34.166,12.754 C32.789,13.35 31.302,13.762 29.737,13.958 C28.584,14.099 27.412,14.172 26.22,14.172 L26.22,1.418 L49.606,1.418 L49.606,2.869 Z M49.606,24.095 L26.22,24.095 L26.22,15.59 C27.47,15.59 28.703,15.515 29.913,15.364 C31.615,15.151 33.231,14.702 34.729,14.055 C37.764,12.742 40.579,11.133 43.156,9.275 L43.156,9.278 L49.606,4.62 L49.606,24.095 Z M1.417,24.095 L1.417,4.62 L7.868,9.278 L7.868,9.275 C10.444,11.133 13.259,12.742 16.294,14.055 C17.793,14.702 19.409,15.151 21.111,15.364 C22.32,15.515 23.553,15.59 24.803,15.59 L24.803,24.095 L1.417,24.095 Z M1.417,1.418 L24.803,1.418 L24.803,14.172 C23.613,14.172 22.438,14.099 21.287,13.958 C19.722,13.762 18.235,13.35 16.856,12.754 C13.918,11.482 11.193,9.924 8.699,8.127 L8.698,8.127 L1.417,2.869 L1.417,1.418 Z M51.023,0 L-1.42108547e-14,0 L-1.42108547e-14,1.846 L-1.42108547e-14,3.594 L-1.42108547e-14,25.513 L24.803,25.513 L26.22,25.513 L51.023,25.513 L51.023,0 Z" id="Fill-24"></path>
            </g>
        </g>
    </g>
</svg>