<?xml version="1.0" encoding="UTF-8"?>
<svg width="52px" height="48px" viewBox="0 0 52 48" version="1.1" xmlns="http://www.w3.org/2000/svg" xmlns:xlink="http://www.w3.org/1999/xlink">
    <!-- Generator: Sketch 63.1 (92452) - https://sketch.com -->
    <title>Group</title>
    <desc>Created with Sketch.</desc>
    <g id="Page-1" stroke="none" stroke-width="1" fill="none" fill-rule="evenodd">
        <g id="as_vert_CONT" transform="translate(-272.000000, -395.000000)" fill="#1A1919">
            <g id="Group" transform="translate(272.834000, 395.433000)">
                <path d="M7.087,41.419 L7.087,32.599 L10.331,32.599 L10.331,41.177 C10.331,43.407 11.365,44.44 13.19,44.44 C15.056,44.44 15.988,43.366 15.988,41.075 L15.988,32.599 L19.253,32.599 L19.253,41.278 C19.253,45.19 16.921,46.976 13.129,46.976 C9.5,46.976 7.087,45.333 7.087,41.419" id="Fill-1"></path>
                <path d="M28.867,46.772 L28.867,40.405 C28.867,38.886 28.441,38.114 27.184,38.114 C25.887,38.114 25.156,39.229 25.156,41.015 L25.156,46.772 L21.973,46.772 L21.973,38.419 C21.973,37.304 21.933,36.513 21.912,35.903 L24.954,35.903 C24.994,36.29 25.096,37.526 25.116,38.134 C25.664,36.411 27.021,35.702 28.584,35.702 C31.32,35.702 32.092,37.546 32.092,39.575 L32.092,46.772 L28.867,46.772 Z" id="Fill-3"></path>
                <path d="M39.799,40.628 L37.995,40.628 L37.995,44.421 L39.9,44.421 C41.401,44.421 42.415,43.935 42.415,42.474 C42.415,41.034 41.239,40.628 39.799,40.628 M39.414,34.911 L37.995,34.911 L37.995,38.216 L39.435,38.216 C40.976,38.216 41.645,37.708 41.645,36.554 C41.645,35.356 40.936,34.911 39.414,34.911 M40.205,46.772 L34.812,46.772 L34.812,32.599 L39.719,32.599 C43.003,32.599 44.889,33.796 44.889,36.188 C44.889,37.79 44.037,38.845 42.334,39.249 C44.504,39.534 45.699,40.831 45.699,42.718 C45.699,45.575 43.389,46.772 40.205,46.772" id="Fill-4"></path>
                <path d="M49.607,2.869 L42.326,8.127 L42.326,8.126 C39.832,9.924 37.106,11.483 34.168,12.753 C32.789,13.349 31.303,13.762 29.737,13.957 C28.585,14.1 27.412,14.173 26.221,14.173 L26.221,1.417 L49.607,1.417 L49.607,2.869 Z M49.607,24.095 L26.221,24.095 L26.221,15.591 C27.471,15.591 28.703,15.515 29.913,15.364 C31.615,15.151 33.231,14.703 34.73,14.054 C37.766,12.742 40.58,11.133 43.156,9.276 L43.156,9.277 L49.607,4.619 L49.607,24.095 Z M1.418,24.095 L1.418,4.619 L7.868,9.277 L7.868,9.276 C10.444,11.133 13.26,12.742 16.294,14.054 C17.793,14.703 19.409,15.151 21.111,15.364 C22.321,15.515 23.553,15.591 24.804,15.591 L24.804,24.095 L1.418,24.095 Z M1.418,1.417 L24.804,1.417 L24.804,14.173 C23.613,14.173 22.439,14.1 21.287,13.957 C19.722,13.762 18.235,13.349 16.856,12.753 C13.918,11.483 11.192,9.924 8.698,8.126 L8.698,8.127 L1.418,2.869 L1.418,1.417 Z M51.023,-2.84217094e-14 L0,-2.84217094e-14 L0,1.845 L0,3.594 L0,25.512 L24.804,25.512 L26.221,25.512 L51.023,25.512 L51.023,-2.84217094e-14 Z" id="Fill-5"></path>
            </g>
        </g>
    </g>
</svg>