<svg width="211" height="206" viewBox="0 0 211 206" fill="none" xmlns="http://www.w3.org/2000/svg">
<rect width="211" height="206" fill="#FDFDFD"/>
<path d="M112.847 134.007C112.847 138.562 113.509 141.619 114.835 143.178C116.16 144.736 118.569 145.515 122.063 145.515C125.677 145.515 130.315 143.717 135.977 140.121L139.591 146.055C128.99 154.806 120.256 159.182 113.389 159.182C106.522 159.182 101.101 157.563 97.1258 154.327C93.1503 150.97 91.1626 145.096 91.1626 136.704V89.5914H82.1274L80.6818 82.9381L91.1626 79.7013V70.8901L112.847 61V80.7802L134.17 79.1618L132.182 90.8501L112.847 90.1309V134.007Z" fill="#239DAD"/>
<path d="M58.5 64.7273C58.5 58.3636 64.0682 52.7955 73.6136 52C81.5682 52 84.75 57.5682 84.75 64.7273C84.75 71.8864 79.1818 76.6591 71.2273 76.6591C63.2727 76.6591 58.5 71.0909 58.5 64.7273Z" stroke="#239DAD" stroke-width="6"/>
<path d="M62.5 55L59.5 52" stroke="#239DAD" stroke-width="6" stroke-linecap="round"/>
<path d="M70.4667 65.6833C71.4946 66.9075 71.899 69.4091 71.9727 70.5068C72.9675 69.6715 75.1477 67.319 75.9104 64.5912C76.8638 61.1815 74.4045 59.7677 72.0556 60.0005C70.1766 60.1867 67.7909 63.0017 66.833 64.3859C67.6159 64.3083 69.4388 64.4591 70.4667 65.6833Z" fill="#239DAD"/>
<path d="M132.37 61.668C133.447 62.9505 133.87 65.5712 133.948 66.7212C134.99 65.8461 137.274 63.3815 138.073 60.5239C139.072 56.9518 136.495 55.4706 134.034 55.7145C132.066 55.9096 129.567 58.8586 128.563 60.3087C129.383 60.2274 131.293 60.3855 132.37 61.668Z" fill="#239DAD"/>
<path d="M146.5 61.043C146.5 52.7634 141.367 49 136.234 49C125.969 49 120.836 54.2688 121.569 62.5484C122.302 70.8279 128.168 72.3333 134.034 72.3333C139.901 72.3333 146.5 69.3225 146.5 61.043Z" stroke="#239DAD" stroke-width="6"/>
<path d="M141.863 99.5541C142.672 98.8011 142.716 97.5356 141.963 96.7275C141.21 95.9193 139.945 95.8746 139.137 96.6275L141.863 99.5541ZM146 103.591C147.105 103.591 148 102.695 148 101.591C148 100.486 147.105 99.5908 146 99.5908V103.591ZM148 108.591C149.105 108.591 150 107.695 150 106.591C150 105.486 149.105 104.591 148 104.591V108.591ZM146 113.091C147.105 113.091 148 112.195 148 111.091C148 109.986 147.105 109.091 146 109.091V113.091ZM75.5 98.0908C75.5 96.9863 74.6046 96.0908 73.5 96.0908C72.3954 96.0908 71.5 96.9863 71.5 98.0908H75.5ZM66.7847 99.3531C65.9381 98.6436 64.6767 98.7547 63.9672 99.6013C63.2577 100.448 63.3688 101.709 64.2153 102.419L66.7847 99.3531ZM63.3372 103.824C62.2484 103.637 61.2148 104.369 61.0286 105.458C60.8424 106.547 61.5741 107.58 62.6628 107.766L63.3372 103.824ZM63 109.091C61.8954 109.091 61 109.986 61 111.091C61 112.195 61.8954 113.091 63 113.091V109.091ZM109.606 117.612C115.856 117.351 122.989 114.984 128.433 112.771C131.182 111.653 133.554 110.551 135.24 109.729C136.084 109.318 136.758 108.975 137.223 108.734C137.455 108.614 137.636 108.519 137.759 108.453C137.821 108.42 137.869 108.395 137.902 108.377C137.918 108.368 137.931 108.361 137.94 108.356C137.944 108.354 137.948 108.352 137.95 108.351C137.952 108.35 137.953 108.349 137.953 108.349C137.954 108.349 137.954 108.348 137.954 108.348C137.955 108.348 137.955 108.348 137 106.591C136.045 104.834 136.045 104.834 136.045 104.833C136.045 104.833 136.045 104.833 136.045 104.833C136.045 104.834 136.045 104.834 136.044 104.834C136.043 104.835 136.041 104.836 136.037 104.838C136.031 104.841 136.021 104.846 136.008 104.854C135.98 104.868 135.938 104.891 135.882 104.921C135.77 104.98 135.602 105.069 135.383 105.182C134.943 105.41 134.299 105.738 133.487 106.134C131.862 106.927 129.574 107.989 126.926 109.065C121.577 111.24 114.971 113.384 109.439 113.615L109.606 117.612ZM95.8942 114.9C84.1881 111.974 78.1362 109.036 74.8287 106.096L72.1713 109.086C76.2275 112.691 83.0665 115.816 94.924 118.781L95.8942 114.9ZM137 106.591C138.992 106.765 138.992 106.766 138.992 106.766C138.992 106.766 138.992 106.767 138.992 106.767C138.992 106.768 138.992 106.768 138.992 106.768C138.992 106.769 138.992 106.769 138.992 106.769C138.992 106.769 138.992 106.767 138.992 106.764C138.993 106.759 138.994 106.748 138.996 106.732C138.999 106.7 139.005 106.649 139.013 106.58C139.03 106.443 139.057 106.236 139.099 105.976C139.184 105.453 139.325 104.729 139.55 103.931C140.019 102.265 140.77 100.573 141.863 99.5541L139.137 96.6275C137.23 98.404 136.231 100.961 135.7 102.847C135.425 103.824 135.254 104.701 135.151 105.336C135.099 105.654 135.064 105.915 135.042 106.1C135.031 106.193 135.022 106.267 135.017 106.32C135.014 106.347 135.012 106.368 135.011 106.384C135.01 106.393 135.009 106.399 135.009 106.405C135.008 106.407 135.008 106.409 135.008 106.411C135.008 106.412 135.008 106.413 135.008 106.414C135.008 106.414 135.008 106.415 135.008 106.415C135.008 106.416 135.008 106.416 137 106.591ZM137 106.591C138.562 107.84 138.561 107.841 138.561 107.841C138.561 107.841 138.561 107.842 138.56 107.842C138.56 107.842 138.56 107.843 138.559 107.843C138.559 107.844 138.559 107.844 138.559 107.844C138.559 107.844 138.559 107.843 138.561 107.841C138.565 107.837 138.572 107.828 138.583 107.815C138.604 107.789 138.64 107.747 138.689 107.69C138.788 107.576 138.941 107.407 139.141 107.2C139.544 106.783 140.127 106.228 140.844 105.676C142.326 104.537 144.145 103.591 146 103.591V99.5908C142.855 99.5908 140.174 101.145 138.406 102.506C137.498 103.204 136.769 103.898 136.265 104.42C136.012 104.681 135.813 104.902 135.674 105.062C135.604 105.142 135.549 105.207 135.51 105.254C135.49 105.278 135.474 105.297 135.462 105.312C135.456 105.319 135.451 105.325 135.447 105.33C135.445 105.333 135.443 105.335 135.442 105.337C135.441 105.338 135.441 105.339 135.44 105.339C135.44 105.34 135.439 105.34 135.439 105.34C135.439 105.341 135.438 105.341 137 106.591ZM137 108.591H148V104.591H137V108.591ZM137 106.591C135.618 108.036 135.618 108.036 135.618 108.037C135.618 108.037 135.619 108.037 135.619 108.038C135.62 108.038 135.62 108.039 135.621 108.039C135.622 108.041 135.624 108.042 135.626 108.044C135.63 108.048 135.635 108.053 135.642 108.059C135.654 108.071 135.672 108.087 135.693 108.107C135.736 108.147 135.797 108.203 135.874 108.272C136.028 108.411 136.249 108.604 136.525 108.833C137.075 109.289 137.858 109.899 138.791 110.513C140.58 111.688 143.244 113.091 146 113.091V109.091C144.461 109.091 142.624 108.244 140.987 107.169C140.208 106.657 139.546 106.142 139.08 105.755C138.848 105.562 138.667 105.404 138.547 105.296C138.487 105.242 138.442 105.201 138.415 105.176C138.401 105.163 138.391 105.153 138.385 105.148C138.383 105.146 138.381 105.144 138.381 105.144C138.38 105.144 138.38 105.144 138.381 105.144C138.381 105.144 138.381 105.144 138.381 105.145C138.382 105.145 138.382 105.145 138.382 105.145C138.382 105.145 138.382 105.146 137 106.591ZM75.5 107.591V98.0908H71.5V107.591H75.5ZM73.5 107.591C74.7847 106.058 74.7847 106.058 74.7846 106.058C74.7846 106.058 74.7845 106.058 74.7845 106.058C74.7844 106.058 74.7843 106.058 74.7842 106.058C74.7841 106.057 74.7839 106.057 74.7838 106.057C74.7834 106.057 74.7821 106.056 74.7811 106.055C74.7786 106.053 74.7755 106.05 74.7706 106.046C74.7612 106.038 74.7474 106.027 74.7292 106.011C74.6927 105.981 74.6388 105.936 74.5691 105.877C74.4297 105.76 74.227 105.591 73.974 105.379C73.4681 104.955 72.761 104.362 71.9563 103.687C70.3468 102.339 68.3468 100.662 66.7847 99.3531L64.2153 102.419C65.7774 103.728 67.7774 105.404 69.3869 106.753C70.1916 107.428 70.8987 108.02 71.4047 108.444C71.6576 108.656 71.8603 108.826 71.9997 108.943C72.0694 109.001 72.1233 109.047 72.1598 109.077C72.1779 109.092 72.192 109.104 72.2012 109.112C72.2057 109.116 72.2096 109.119 72.2118 109.121C72.2132 109.122 72.2136 109.122 72.2144 109.123C72.2149 109.123 72.2148 109.123 72.2151 109.123C72.2152 109.124 72.2152 109.124 72.2153 109.124C72.2153 109.124 72.2153 109.124 73.5 107.591ZM73.8372 105.619L63.3372 103.824L62.6628 107.766L73.1628 109.562L73.8372 105.619ZM73.5 107.591C72.3531 105.952 72.3535 105.952 72.3538 105.952C72.3539 105.952 72.3543 105.951 72.3545 105.951C72.3549 105.951 72.3552 105.951 72.3555 105.951C72.356 105.95 72.3562 105.95 72.3561 105.95C72.356 105.95 72.3546 105.951 72.3521 105.953C72.3471 105.956 72.3374 105.963 72.3233 105.973C72.295 105.992 72.2487 106.023 72.1856 106.064C72.0593 106.146 71.866 106.268 71.6145 106.416C71.1102 106.715 70.379 107.116 69.4893 107.518C67.6835 108.334 65.3538 109.091 63 109.091V113.091C66.1462 113.091 69.0665 112.098 71.1357 111.164C72.1835 110.69 73.046 110.217 73.6511 109.859C73.9543 109.68 74.1946 109.528 74.3632 109.419C74.4476 109.364 74.5141 109.32 74.5617 109.288C74.5855 109.272 74.6046 109.259 74.6189 109.249C74.626 109.244 74.6319 109.24 74.6366 109.236C74.6389 109.235 74.641 109.233 74.6427 109.232C74.6435 109.232 74.6443 109.231 74.645 109.231C74.6454 109.23 74.6459 109.23 74.646 109.23C74.6465 109.23 74.6469 109.229 73.5 107.591Z" fill="#239DAD"/>
</svg>
